<?xml version="1.0" encoding="UTF-8" standalone="no"?>
<!-- Created with Inkscape (http://www.inkscape.org/) -->

<svg
   version="1.1"
   id="svg1795"
   width="785.77838"
   height="746.71014"
   viewBox="0 0 785.77838 746.71015"
   sodipodi:docname="logo.svg"
   inkscape:version="1.2.2 (b0a8486541, 2022-12-01)"
   xmlns:inkscape="http://www.inkscape.org/namespaces/inkscape"
   xmlns:sodipodi="http://sodipodi.sourceforge.net/DTD/sodipodi-0.dtd"
   xmlns="http://www.w3.org/2000/svg"
   xmlns:svg="http://www.w3.org/2000/svg">
  <defs
     id="defs1799" />
  <sodipodi:namedview
     id="namedview1797"
     pagecolor="#ffffff"
     bordercolor="#666666"
     borderopacity="1.0"
     inkscape:showpageshadow="2"
     inkscape:pageopacity="0.0"
     inkscape:pagecheckerboard="0"
     inkscape:deskcolor="#d1d1d1"
     showgrid="false"
     inkscape:zoom="0.75019163"
     inkscape:cx="564.52243"
     inkscape:cy="279.26198"
     inkscape:window-width="1916"
     inkscape:window-height="1050"
     inkscape:window-x="0"
     inkscape:window-y="26"
     inkscape:window-maximized="1"
     inkscape:current-layer="g1801" />
  <g
     inkscape:groupmode="layer"
     inkscape:label="Image"
     id="g1801"
     transform="translate(39.383667,41.630882)">
    <rect
       style="fill:#ffffff;stroke:none;stroke-width:1.37953;stroke-linecap:round;stop-color:#000000"
       id="rect2164"
       width="785.77838"
       height="746.71014"
       x="-39.383667"
       y="-41.630882"
       ry="75.350174"
       rx="75.350174" />
    <path
       style="fill:#000000;stroke-width:1"
       d="M 0,613.80453 C 0,567.02696 0.31495133,554.04595 1.4732147,553.08468 3.1405851,551.70088 184.94491,483.05502 210.67544,474.09387 l 7.6875,-2.67732 0.75256,-24.33478 c 0.4139,-13.38414 0.33767,-33.44322 -0.16943,-44.57575 l -0.92198,-20.24096 -14.59221,-7.55141 c -8.02572,-4.15327 -17.52754,-9.76761 -21.11519,-12.4763 -11.14299,-8.41304 -20.23785,-21.9282 -24.31264,-36.12915 -2.32271,-8.09475 -5.28921,-38.1772 -5.52586,-56.03591 -0.15777,-11.90649 0.16616,-14.66832 2.27881,-19.42843 3.12149,-7.03322 6.02973,-10.71823 11.81884,-14.97559 l 4.60488,-3.38646 0.009,-48.1891 c 0.006,-26.504 0.51856,-52.63114 1.14075,-58.0603 2.69045,-23.4765 14.762,-46.608757 35.7981,-68.598543 23.68311,-24.756544 54.80713,-43.240963 89.96379,-53.4289626 9.7231,-2.8176455 10.33188,-2.8482779 56.60543,-2.8482779 46.11835,0 46.91818,0.039842 56.83447,2.8311258 21.16988,5.9589944 40.19672,14.7384527 57.33155,26.4541987 29.09858,19.895836 52.62006,51.653095 58.44446,78.908149 1.53878,7.20058 4.18452,14.30143 8.60746,23.10133 12.99509,25.8551 14.91272,37.53632 14.42763,87.88592 l -0.36773,38.16867 -6.6506,13.73257 c -3.65783,7.55292 -6.6506,14.4541 -6.6506,15.33597 0,0.88185 2.09683,6.51115 4.65963,12.50955 11.02196,25.79763 8.86366,46.31608 -7.966,75.73085 l -5.67572,9.91998 -0.65676,28.91566 c -0.70323,30.96146 -2.03593,40.63547 -7.20953,52.33392 -1.54786,3.49996 -2.81427,6.77552 -2.81427,7.27902 0,0.95833 3.47733,2.34284 65.34939,26.01921 52.29669,20.01218 108.21476,42.29358 117.9759,47.00929 l 8.09639,3.91144 0.32475,14.13319 0.32476,14.1332 h -3.64815 c -5.726,0 -25.10247,-6.9578 -53.24656,-19.12005 -14.23141,-6.14999 -35.5042,-15.35116 -47.27287,-20.44704 -18.77709,-8.13055 -86.64406,-35.23804 -93.22024,-37.23411 -2.00237,-0.60778 -3.86725,1.00347 -10.6988,9.24361 l -8.27373,9.9797 v 75.054 75.05401 h -53.78313 c -29.58072,0 -53.78313,-0.33775 -53.78313,-0.75058 0,-1.02144 26.63688,-44.26066 40.86391,-66.33375 23.56886,-36.56682 35.53259,-55.92934 36.19951,-58.58659 1.03656,-4.12995 -2.27932,-8.19962 -7.9519,-9.75962 -6.88237,-1.8927 -16.01427,0.15474 -23.40951,5.24858 -9.66614,6.65806 -55.19738,44.44483 -105.03803,87.172 -7.36199,6.31125 -35.99835,28.00908 -49.38687,37.42053 L 268.9154,671.6954 134.45758,672.49856 0,673.30173 Z M 471.55362,510.13066 c 6.28187,-2.85193 14.69903,-11.68399 18.2119,-19.10958 1.52399,-3.22145 3.88301,-10.21295 5.24228,-15.53665 1.35927,-5.32371 4.35396,-13.38197 6.65487,-17.90725 l 4.18348,-8.22779 0.80452,-32.38554 c 0.90399,-36.39058 0.82095,-35.96119 10.40248,-53.78313 9.80053,-18.22929 10.80864,-21.28307 10.69103,-32.38554 -0.11992,-11.32137 -2.07614,-18.52053 -7.20396,-26.51152 l -3.62492,-5.64897 -8.01024,-0.80443 c -7.9102,-0.7944 -8.06423,-0.87523 -12.33388,-6.47398 l -4.32365,-5.66954 h -11.90691 c -10.36474,0 -12.20652,-0.29961 -14.22016,-2.31325 -6.66221,-6.66221 0.55084,-21.61574 16.06603,-33.30678 15.04386,-11.33589 20.11729,-13.31173 35.71386,-13.90872 l 13.2609,-0.5076 -0.56248,-29.63243 c -0.5113,-26.93694 -0.82793,-30.63768 -3.48078,-40.68355 -4.94234,-18.71579 -21.40689,-47.8121 -30.13119,-53.24818 -6.84724,-4.26649 -9.78342,-2.79405 -37.22778,18.669 -24.30327,19.00653 -42.88542,32.17364 -50.13446,35.52474 -14.56063,6.73111 -27.93783,1.06515 -27.93783,-11.83318 0,-3.74592 -0.77694,-3.68364 -7.21092,0.57805 -5.517,3.65431 -14.49334,13.34238 -22.50702,24.29159 -9.50012,12.98014 -15.01548,15.8765 -27.99199,14.69983 -4.83446,-0.43837 -9.28291,-2.0183 -16.70596,-5.93336 -10.9571,-5.77901 -13.9019,-6.36634 -17.15568,-3.42171 -1.88285,1.70396 -2.11517,3.96635 -2.11517,20.59821 0,13.47208 0.418,19.25567 1.49849,20.73331 1.31796,1.80243 4.27888,2.12664 24.57831,2.69129 21.37131,0.59447 23.4223,0.83985 27.70633,3.31488 4.39272,2.53782 6.1461,2.71332 34.69879,3.47313 28.27611,0.75245 30.39217,0.96036 35.42786,3.48094 8.08477,4.04676 23.67248,16.2129 26.37485,20.58542 3.10358,5.0217 3.01333,7.64591 -0.5015,14.58211 -1.59037,3.13842 -2.88696,7.4151 -2.88131,9.50372 0.006,2.08861 2.39863,13.94688 5.31776,26.3517 2.91912,12.40482 5.58783,23.77886 5.93045,25.27567 0.34264,1.49679 2.31316,4.41162 4.37895,6.47742 4.04866,4.04865 8.30019,5.22023 19.06137,5.25268 9.61483,0.029 14.78767,1.85664 17.40524,6.14955 3.13815,5.14666 2.82407,8.167 -1.3428,12.91279 -5.65267,6.43805 -21.39424,17.7453 -26.68939,19.17113 -2.91571,0.78511 -11.8943,1.14191 -22.82467,0.90701 -16.64567,-0.35772 -18.39707,-0.60413 -22.99107,-3.23472 -5.93931,-3.40095 -9.48502,-8.68167 -9.48502,-14.12629 0,-2.47298 2.8442,-10.0705 7.51808,-20.08257 8.49384,-18.19496 9.08003,-22.00593 4.7967,-31.1846 -4.40207,-9.43311 -13.39007,-16.45424 -24.57379,-19.19626 -4.07946,-1.00021 -7.35167,-2.96279 -11.67175,-7.00041 -5.2428,-4.90002 -6.62975,-5.61056 -10.95157,-5.61056 -4.3956,0 -5.61214,0.65536 -10.88746,5.86514 l -5.9389,5.86515 -26.483,0.59685 c -14.56565,0.32828 -28.18362,1.11544 -30.26215,1.74927 -4.83478,1.47431 -7.2088,6.02669 -7.2088,13.82346 0,5.6036 0.35642,6.37883 4.94543,10.75623 2.91319,2.77886 13.01324,8.99508 24.57831,15.12704 20.62456,10.93544 27.95081,16.65095 31.56783,24.62741 1.70024,3.74946 2.01723,10.90042 2.52288,56.91475 l 0.57832,52.62651 3.25805,5.54274 c 1.79194,3.04851 5.43531,7.13197 8.09639,9.07436 12.36325,9.02423 38.16408,19.20628 56.42009,22.26565 5.34569,0.89583 18.04715,1.67034 28.22546,1.72112 15.86009,0.0791 19.20015,-0.22282 23.36087,-2.11176 z M 422.94005,468.5409 c -7.05482,-0.61189 -8.26551,-1.09101 -11.27711,-4.46277 -3.76321,-4.21327 -4.48152,-9.88416 -1.72774,-13.6402 1.55673,-2.12332 3.28842,-2.24516 31.90974,-2.24516 h 30.26368 l 2.31949,2.86484 c 1.72467,2.13018 2.1525,3.89389 1.66831,6.8776 -1.05054,6.4737 -4.92416,9.36401 -14.14122,10.55146 -8.67256,1.11731 -26.47308,1.14205 -39.01515,0.0542 z m -30.25319,-35.39964 c -4.85445,-0.1076 -11.16405,-2.92405 -10.98072,-9.57179 0.18333,-6.64774 3.92646,-8.90347 54.92035,-8.91239 41.19443,-0.007 51.68044,0.7824 55.04286,4.14481 2.62303,2.62304 2.91776,8.8964 0.56892,12.10957 -1.57434,2.15366 -37.39578,1.99994 -54.18137,2.30458 -16.78558,0.30465 -31.92043,0.22334 -45.37004,-0.0748 z M 231.81653,358.65043 c 2.96287,-3.27393 1.03677,-5.83492 -9.42629,-12.53342 -12.34524,-7.90346 -20.8539,-12.05538 -23.83523,-11.63071 -2.96839,0.42281 -4.00532,4.79443 -1.77474,7.48211 3.48278,4.19649 28.04293,18.89906 31.57026,18.89906 0.80278,0 2.36249,-0.99767 3.466,-2.21704 z M 438.07352,115.95181 c 2.57769,-1.7494 10.57427,-8.57076 17.77019,-15.15859 7.19592,-6.587818 14.30754,-12.44324 15.80361,-13.012043 1.49606,-0.568805 7.11033,-1.03419 12.47615,-1.03419 7.72239,0 9.75603,-0.347344 9.75603,-1.666323 0,-3.150979 -14.05083,-19.127159 -23.40288,-26.609731 -5.15027,-4.120728 -13.31204,-9.463646 -18.13726,-11.87315 l -8.77311,-4.380916 -29.05773,-0.360197 c -29.05521,-0.360166 -29.05801,-0.359961 -32.21018,2.351417 -4.72809,4.066934 -5.36379,11.921818 -1.35082,16.69097 l 2.97834,3.539547 28.08525,0.834845 c 28.10527,0.835441 32.38504,1.498435 34.79949,5.390905 2.13792,3.446653 -0.30063,7.390989 -9.94292,16.082633 -12.6037,11.361081 -15.85565,15.566243 -15.85565,20.503253 0,5.05238 1.58289,7.94109 5.52305,10.07934 4.4777,2.42994 6.23749,2.21982 11.53844,-1.37777 z"
       id="path1963"
       sodipodi:nodetypes="ssscsscssssssccscssssssscsssscssssscccssssscccsssssssscccssssscsssscsscsssscssssssssssssssssssscsssssssssssssssscssssssscssssssssscsssssszcsszsssssssssssssscssscssssss" />
  </g>
</svg>
